<?xml version="1.0" standalone="no"?>
<!DOCTYPE svg PUBLIC "-//W3C//DTD SVG 20010904//EN"
 "http://www.w3.org/TR/2001/REC-SVG-20010904/DTD/svg10.dtd">
<svg version="1.0" xmlns="http://www.w3.org/2000/svg"
 width="1440.000000pt" height="264.000000pt" viewBox="0 0 1440.000000 264.000000"
 preserveAspectRatio="xMidYMid meet">

<g transform="translate(0.000000,264.000000) scale(0.100000,-0.100000)"
fill="#4082C9" stroke="none">
<path d="M8642 2625 c-29 -8 -63 -20 -75 -27 -14 -8 -57 -11 -122 -9 -55 1
-122 -3 -150 -9 -27 -6 -86 -13 -130 -15 -234 -12 -307 -17 -332 -21 -40 -8
-249 -8 -307 0 -27 3 -88 13 -135 21 -209 36 -272 40 -551 39 l-255 0 -133
-38 c-150 -43 -222 -48 -282 -21 -36 16 -48 17 -122 6 -103 -15 -221 -18 -313
-9 -55 5 -83 2 -130 -12 -33 -11 -79 -24 -102 -30 -24 -6 -43 -14 -43 -18 0
-13 -119 -17 -235 -9 -48 3 -110 1 -155 -7 -76 -13 -197 -14 -281 -1 -35 5
-55 2 -80 -11 -45 -23 -158 -23 -225 -1 -27 10 -74 33 -104 52 -72 47 -114 54
-148 26 -61 -48 -79 -53 -140 -40 -71 15 -109 14 -174 -6 -71 -21 -97 -19
-160 10 -52 24 -57 24 -103 11 -132 -40 -226 -29 -300 36 -31 28 -58 42 -85
45 -38 5 -44 2 -108 -54 -96 -86 -146 -120 -205 -139 -74 -25 -121 -22 -300
15 -108 23 -135 34 -222 96 -108 76 -137 86 -192 64 -33 -14 -45 -15 -178 -23
-166 -10 -237 -17 -305 -30 -62 -11 -72 -10 -190 21 -69 18 -139 33 -157 33
-52 0 -95 -47 -162 -178 -33 -65 -68 -126 -79 -135 -19 -18 -22 -17 -70 7 -27
14 -80 30 -117 37 -50 8 -75 18 -91 36 -17 18 -31 24 -56 22 -20 -2 -53 8 -86
25 -29 15 -57 24 -62 21 -5 -3 -38 2 -74 11 -60 15 -68 15 -90 1 -23 -16 -31
-14 -138 25 -102 37 -123 42 -214 43 -76 1 -107 6 -125 18 -13 10 -29 17 -36
17 -11 0 -13 -244 -13 -1261 0 -1197 1 -1261 18 -1254 78 31 166 39 412 40
250 0 296 -5 365 -37 12 -5 82 -6 165 -3 181 8 184 8 583 0 l328 -7 44 45 44
46 68 -20 c114 -32 189 -41 250 -29 49 11 58 9 101 -12 69 -34 205 -38 287 -8
33 12 78 26 100 32 53 14 57 16 76 30 13 9 31 3 97 -35 l81 -47 718 0 c750 0
946 5 940 24 -2 6 9 16 25 23 17 7 28 20 28 32 0 74 78 85 243 36 28 -8 66
-15 84 -15 31 0 33 2 33 35 0 33 2 35 33 35 19 0 69 -9 112 -20 108 -28 123
-26 184 20 60 45 67 47 93 23 12 -11 36 -18 64 -18 43 0 49 -4 133 -87 l87
-88 126 0 126 0 32 31 31 32 68 -32 c86 -40 125 -41 148 -4 18 30 42 53 55 53
4 0 19 -17 32 -39 l24 -38 119 1 c113 1 123 3 184 33 67 33 88 39 179 48 30 4
100 13 155 21 55 9 116 17 135 20 19 2 45 6 57 9 18 4 23 -2 33 -48 22 -90 5
-84 222 -82 153 2 201 5 230 18 29 13 144 42 249 62 9 2 68 -14 130 -35 135
-47 173 -46 280 5 84 40 127 44 229 19 65 -16 209 -22 265 -10 20 3 61 -5 125
-26 l95 -31 255 -2 c173 -1 263 2 280 10 14 6 64 10 115 9 50 -1 119 4 155 12
36 8 108 16 160 19 99 5 148 9 265 22 39 4 135 8 215 8 146 0 190 -4 345 -30
86 -15 190 -20 380 -20 262 0 338 7 445 40 188 57 256 63 322 29 28 -14 82
-14 148 2 8 2 31 7 50 12 19 4 102 6 183 4 85 -2 153 0 160 6 7 5 37 15 67 22
30 7 64 18 75 25 28 17 90 27 155 24 138 -6 214 -2 305 16 59 12 140 15 168 6
62 -20 87 -20 135 1 96 44 213 29 333 -43 82 -49 111 -49 175 -4 39 29 55 35
79 30 77 -16 144 -17 198 -1 30 9 67 17 81 18 l26 2 0 1148 0 1148 -25 5 c-14
3 -37 7 -51 10 -14 3 -32 0 -40 -6 -12 -10 -26 -5 -72 28 l-58 41 -69 -15
c-39 -8 -90 -12 -114 -9 -33 5 -59 0 -105 -18 -70 -28 -203 -50 -270 -44 -36
2 -46 0 -46 -12 0 -9 -13 -21 -30 -27 -22 -8 -30 -18 -30 -36 0 -59 -77 -71
-208 -33 -50 14 -105 26 -121 26 -29 0 -31 -2 -31 -36 l0 -37 -53 6 c-29 4
-79 16 -112 27 -75 26 -97 25 -132 -3 -15 -13 -43 -33 -62 -44 l-34 -21 -29
21 c-18 13 -46 22 -71 23 -40 1 -49 8 -160 119 l-117 118 -49 -6 c-58 -7 -116
-34 -166 -79 l-36 -31 -62 28 c-34 16 -74 43 -89 59 l-27 31 -21 -50 c-41 -96
-74 -104 -111 -26 -28 58 -28 58 -39 42 -6 -11 -34 -15 -107 -15 -88 -1 -105
-4 -168 -33 -77 -35 -97 -40 -200 -48 -38 -4 -77 -8 -85 -10 -8 -2 -42 -7 -75
-10 -33 -3 -87 -10 -120 -14 -33 -5 -64 -5 -68 -1 -5 4 -15 38 -24 75 -14 61
-18 68 -49 81 -79 33 -202 22 -354 -31 -77 -27 -254 -66 -300 -67 -14 0 -66
16 -117 36 -119 47 -173 48 -263 5 -84 -40 -147 -46 -230 -23 -46 12 -106 18
-205 20 -115 1 -151 5 -200 23 -71 26 -194 58 -250 66 -106 15 -251 15 -303 0z"/>
</g>
</svg>
